<?xml version="1.0" encoding="UTF-8"?>
<!DOCTYPE svg PUBLIC "-//W3C//DTD SVG 1.1//EN" "http://www.w3.org/Graphics/SVG/1.1/DTD/svg11.dtd">
<svg xmlns="http://www.w3.org/2000/svg" version="1.1" width="213px" height="213px" style="shape-rendering:geometricPrecision; text-rendering:geometricPrecision; image-rendering:optimizeQuality; fill-rule:evenodd; clip-rule:evenodd" xmlns:xlink="http://www.w3.org/1999/xlink">
<g><path style="opacity:0.576" fill="#fdfffd" d="M 93.5,-0.5 C 95.5,-0.5 97.5,-0.5 99.5,-0.5C 99.0296,0.693482 98.0296,1.36015 96.5,1.5C 94.9704,1.36015 93.9704,0.693482 93.5,-0.5 Z"/></g>
<g><path style="opacity:0.462" fill="#fdfffd" d="M 103.5,-0.5 C 105.5,-0.5 107.5,-0.5 109.5,-0.5C 109.03,0.693482 108.03,1.36015 106.5,1.5C 104.97,1.36015 103.97,0.693482 103.5,-0.5 Z"/></g>
<g><path style="opacity:0.576" fill="#fdfffd" d="M 113.5,-0.5 C 115.5,-0.5 117.5,-0.5 119.5,-0.5C 119.03,0.693482 118.03,1.36015 116.5,1.5C 114.97,1.36015 113.97,0.693482 113.5,-0.5 Z"/></g>
<g><path style="opacity:0.487" fill="#fdfffd" d="M 84.5,0.5 C 90.8571,0.762574 91.0238,1.76257 85,3.5C 83.3167,2.82352 83.1501,1.82352 84.5,0.5 Z"/></g>
<g><path style="opacity:0.488" fill="#fdfffd" d="M 123.5,0.5 C 125.827,0.247073 127.827,0.91374 129.5,2.5C 126.707,3.9725 124.707,3.30583 123.5,0.5 Z"/></g>
<g><path style="opacity:0.447" fill="#fdfffd" d="M 75.5,2.5 C 82.0274,2.95122 82.0274,3.95122 75.5,5.5C 74.8333,5.16667 74.1667,4.83333 73.5,4.5C 74.2427,3.81815 74.9094,3.15149 75.5,2.5 Z"/></g>
<g><path style="opacity:0.404" fill="#fdfffd" d="M 132.5,3.5 C 134.662,2.58294 136.995,2.58294 139.5,3.5C 139.719,4.67504 139.386,5.67504 138.5,6.5C 136.259,5.87143 134.259,4.87143 132.5,3.5 Z"/></g>
<g><path style="opacity:0.506" fill="#fdfffd" d="M 67.5,5.5 C 68.675,5.28099 69.675,5.61432 70.5,6.5C 68.8208,7.78201 66.9874,8.78201 65,9.5C 64.5172,8.55198 64.3505,7.55198 64.5,6.5C 65.791,6.73731 66.791,6.40397 67.5,5.5 Z"/></g>
<g><path style="opacity:0.462" fill="#fdfffd" d="M 142.5,5.5 C 144.936,5.74889 146.936,6.74889 148.5,8.5C 145.474,9.65374 143.474,8.65374 142.5,5.5 Z"/></g>
<g><path style="opacity:0.46" fill="#fdfffd" d="M 58.5,9.5 C 59.675,9.28099 60.675,9.61432 61.5,10.5C 59.9991,11.7515 58.3325,12.7515 56.5,13.5C 55.6143,12.675 55.281,11.675 55.5,10.5C 56.791,10.7373 57.791,10.404 58.5,9.5 Z"/></g>
<g><path style="opacity:0.504" fill="#fdfffd" d="M 151.5,9.5 C 153.757,9.96166 155.757,10.9617 157.5,12.5C 154.474,13.6537 152.474,12.6537 151.5,9.5 Z"/></g>
<g><path style="opacity:0.43" fill="#fdfffd" d="M 50.5,13.5 C 51.4972,13.4701 52.1639,13.9701 52.5,15C 51.2139,16.6486 49.5473,17.8153 47.5,18.5C 46.479,17.9984 46.3123,17.3317 47,16.5C 48.5185,15.8366 49.6851,14.8366 50.5,13.5 Z"/></g>
<g><path style="opacity:0.987" fill="#fdfdfd" d="M 97.5,14.5 C 140.464,13.3884 171.297,32.0551 190,70.5C 205.138,114.123 194.971,150.623 159.5,180C 121.81,203.997 84.8103,202.997 48.5,177C 15.0663,146.354 6.56629,109.854 23,67.5C 38.7911,37.1825 63.6245,19.5158 97.5,14.5 Z"/></g>
<g><path style="opacity:0.425" fill="#fdfffd" d="M 160.5,14.5 C 162.258,14.8769 163.925,15.5435 165.5,16.5C 166.833,17.5 166.833,18.5 165.5,19.5C 163.054,18.4756 161.388,16.8089 160.5,14.5 Z"/></g>
<g><path style="opacity:0.473" fill="#fdfffd" d="M 41.5,19.5 C 42.675,19.281 43.675,19.6143 44.5,20.5C 42.8333,21.8333 41.1667,23.1667 39.5,24.5C 39.1667,24.1667 38.8333,23.8333 38.5,23.5C 39.5244,22.1482 40.5244,20.8149 41.5,19.5 Z"/></g>
<g><path style="opacity:0.487" fill="#fdfffd" d="M 168.5,20.5 C 170.929,20.585 172.929,21.585 174.5,23.5C 171.688,24.393 169.688,23.393 168.5,20.5 Z"/></g>
<g><path style="opacity:0.528" fill="#fdfffd" d="M 34.5,25.5 C 35.3764,25.3691 36.0431,25.7025 36.5,26.5C 35.3787,29.0469 33.712,30.0469 31.5,29.5C 32.5244,28.1482 33.5244,26.8149 34.5,25.5 Z"/></g>
<g><path style="opacity:0.548" fill="#fdfffd" d="M 176.5,26.5 C 178.729,27.0553 180.395,28.3886 181.5,30.5C 178.853,30.8951 177.187,29.5618 176.5,26.5 Z"/></g>
<g><path style="opacity:0.468" fill="#fdfffd" d="M 27.5,32.5 C 28.3764,32.3691 29.0431,32.7025 29.5,33.5C 24.0915,40.2406 23.4248,39.9073 27.5,32.5 Z"/></g>
<g><path style="opacity:0.462" fill="#fdfffd" d="M 183.5,33.5 C 186.787,34.2729 188.287,36.2729 188,39.5C 185.763,38.0148 184.263,36.0148 183.5,33.5 Z"/></g>
<g><path style="opacity:0.538" fill="#fdfffd" d="M 20.5,40.5 C 21.4972,40.4701 22.1639,40.9701 22.5,42C 18.2949,47.9353 17.6282,47.4353 20.5,40.5 Z"/></g>
<g><path style="opacity:0.463" fill="#fdfffd" d="M 189.5,41.5 C 193.019,42.3089 194.352,44.3089 193.5,47.5C 191.722,45.736 190.389,43.736 189.5,41.5 Z"/></g>
<g><path style="opacity:0.413" fill="#fdfffd" d="M 14.5,48.5 C 15.675,48.281 16.675,48.6143 17.5,49.5C 13.0592,56.3742 12.0592,56.0409 14.5,48.5 Z"/></g>
<g><path style="opacity:1" fill="#4b470b" d="M 73.5,45.5 C 83.2309,45.3559 92.5643,47.1893 101.5,51C 107.231,55.3088 106.397,57.4755 99,57.5C 91.2154,56.3499 83.7154,54.1833 76.5,51C 74.393,49.7365 73.393,47.9032 73.5,45.5 Z"/></g>
<g><path style="opacity:0.505" fill="#fdfffd" d="M 195.5,49.5 C 198.393,50.6877 199.393,52.6877 198.5,55.5C 196.585,53.9288 195.585,51.9288 195.5,49.5 Z"/></g>
<g><path style="opacity:1" fill="#46400d" d="M 71.5,55.5 C 69.8793,55.7869 68.8793,56.7869 68.5,58.5C 69.9524,59.9397 70.9524,61.6064 71.5,63.5C 68.6737,61.6912 66.6737,59.1912 65.5,56C 66.1086,53.1968 67.7753,52.1968 70.5,53C 71.2524,53.6708 71.5858,54.5041 71.5,55.5 Z"/></g>
<g><path style="opacity:0.402" fill="#fdfffd" d="M 9.5,57.5 C 10.675,57.281 11.675,57.6143 12.5,58.5C 11.8153,60.5473 10.6486,62.2139 9,63.5C 8.5,63.1667 8,62.8333 7.5,62.5C 8.95012,61.1502 9.61679,59.4835 9.5,57.5 Z"/></g>
<g><path style="opacity:0.458" fill="#fdfffd" d="M 199.5,59.5 C 200.386,58.2241 201.386,58.2241 202.5,59.5C 203.167,60.8333 203.833,62.1667 204.5,63.5C 203.998,64.521 203.332,64.6877 202.5,64C 201.601,62.3484 200.601,60.8484 199.5,59.5 Z"/></g>
<g><path style="opacity:1" fill="#655d14" d="M 71.5,55.5 C 76.1401,63.437 80.8067,71.437 85.5,79.5C 84.6446,80.293 83.8113,79.9597 83,78.5C 79.3101,73.3203 75.4767,68.3203 71.5,63.5C 70.9524,61.6064 69.9524,59.9397 68.5,58.5C 68.8793,56.7869 69.8793,55.7869 71.5,55.5 Z"/></g>
<g><path style="opacity:1" fill="#645f08" d="M 101.5,64.5 C 97.5567,63.7631 93.5567,63.0965 89.5,62.5C 86.0953,63.1913 83.4286,64.8579 81.5,67.5C 79.3071,62.9482 76.9738,58.4482 74.5,54C 75.1667,53.8333 75.8333,53.6667 76.5,53.5C 85.057,56.0956 93.557,58.7622 102,61.5C 102.74,62.7494 102.573,63.7494 101.5,64.5 Z"/></g>
<g><path style="opacity:1" fill="#7b7508" d="M 101.5,64.5 C 101.125,66.6976 100.458,68.6976 99.5,70.5C 95.9221,69.4113 92.2554,69.2446 88.5,70C 86.6498,70.6897 85.3164,71.8564 84.5,73.5C 83.5,71.5 82.5,69.5 81.5,67.5C 83.4286,64.8579 86.0953,63.1913 89.5,62.5C 93.5567,63.0965 97.5567,63.7631 101.5,64.5 Z"/></g>
<g><path style="opacity:0.448" fill="#fdfffd" d="M 5.5,66.5 C 6.67504,66.281 7.67504,66.6143 8.5,67.5C 5.28177,74.1776 4.28177,73.8443 5.5,66.5 Z"/></g>
<g><path style="opacity:0.478" fill="#fdfffd" d="M 204.5,67.5 C 206.27,68.8559 207.603,70.6892 208.5,73C 205.194,72.9595 203.861,71.1262 204.5,67.5 Z"/></g>
<g><path style="opacity:0.372" fill="#fdfffd" d="M 3.5,75.5 C 4.49722,75.4701 5.16389,75.9701 5.5,77C 5.14629,79.2644 4.14629,81.0978 2.5,82.5C 1.72085,80.1152 2.05418,77.7819 3.5,75.5 Z"/></g>
<g><path style="opacity:1" fill="#a59a0f" d="M 99.5,70.5 C 98.1288,74.7792 96.4622,78.9459 94.5,83C 92.7412,83.7975 91.0745,83.6309 89.5,82.5C 88.0748,79.3116 86.4081,76.3116 84.5,73.5C 85.3164,71.8564 86.6498,70.6897 88.5,70C 92.2554,69.2446 95.9221,69.4113 99.5,70.5 Z"/></g>
<g><path style="opacity:0.49" fill="#fdfffd" d="M 207.5,77.5 C 210.306,78.707 210.972,80.707 209.5,83.5C 207.914,81.8273 207.247,79.8273 207.5,77.5 Z"/></g>
<g><path style="opacity:1" fill="#615b04" d="M 143.5,90.5 C 137.5,91.1667 131.5,91.8333 125.5,92.5C 125.5,98.5 125.5,104.5 125.5,110.5C 123.74,113.701 122.906,117.367 123,121.5C 119.455,124.574 115.288,126.241 110.5,126.5C 109.511,122.893 109.177,119.226 109.5,115.5C 113.584,113.131 117.584,110.798 121.5,108.5C 121.181,106.25 121.681,104.25 123,102.5C 123.667,96.1667 123.667,89.8333 123,83.5C 122.077,82.2412 121.243,80.9079 120.5,79.5C 119.06,80.9524 117.394,81.9524 115.5,82.5C 119.793,77.5842 122.793,71.9175 124.5,65.5C 125.498,73.8068 125.831,82.1401 125.5,90.5C 131.5,90.5 137.5,90.5 143.5,90.5 Z"/></g>
<g><path style="opacity:0.419" fill="#fdfffd" d="M -0.5,91.5 C -0.5,90.8333 -0.5,90.1667 -0.5,89.5C 0.161445,88.2825 0.828112,86.9492 1.5,85.5C 2.83333,87.8333 2.83333,90.1667 1.5,92.5C 0.816537,92.1373 0.14987,91.8039 -0.5,91.5 Z"/></g>
<g><path style="opacity:0.368" fill="#fdfffd" d="M 212.5,89.5 C 212.5,90.8333 212.5,92.1667 212.5,93.5C 211.5,93.5 210.5,93.5 209.5,93.5C 209.192,91.076 209.526,88.7427 210.5,86.5C 211.176,87.6016 211.842,88.6016 212.5,89.5 Z"/></g>
<g><path style="opacity:1" fill="#948a0b" d="M 107.5,92.5 C 105.396,92.7989 103.396,92.4656 101.5,91.5C 104.299,89.5975 107.299,87.9308 110.5,86.5C 110.435,86.9382 110.601,87.2716 111,87.5C 112.101,85.6061 113.434,84.9394 115,85.5C 118.015,93.2653 116.515,99.9319 110.5,105.5C 109.808,104.975 109.308,104.308 109,103.5C 108.823,99.6437 108.323,95.977 107.5,92.5 Z"/></g>
<g><path style="opacity:1" fill="#908d58" d="M 143.5,90.5 C 144.043,90.56 144.376,90.8933 144.5,91.5C 138.202,92.4963 131.868,92.8297 125.5,92.5C 131.5,91.8333 137.5,91.1667 143.5,90.5 Z"/></g>
<g><path style="opacity:1" fill="#bab20e" d="M 86.5,90.5 C 89.8984,90.1796 93.2317,90.513 96.5,91.5C 95.7908,94.3844 94.7908,97.051 93.5,99.5C 92.469,98.7515 91.3024,98.0848 90,97.5C 88.1207,95.4732 86.954,93.1398 86.5,90.5 Z"/></g>
<g><path style="opacity:0.477" fill="#fdfffd" d="M -0.5,95.5 C 0.693482,95.9704 1.36015,96.9704 1.5,98.5C 1.65976,100.355 0.993095,101.688 -0.5,102.5C -0.5,100.167 -0.5,97.8333 -0.5,95.5 Z"/></g>
<g><path style="opacity:0.436" fill="#fdfffd" d="M 212.5,96.5 C 212.5,98.8333 212.5,101.167 212.5,103.5C 211.275,102.848 210.608,101.681 210.5,100C 210.608,98.3189 211.275,97.1522 212.5,96.5 Z"/></g>
<g><path style="opacity:1" fill="#a1990c" d="M 79.5,90.5 C 81.8333,90.5 84.1667,90.5 86.5,90.5C 86.954,93.1398 88.1207,95.4732 90,97.5C 91.3024,98.0848 92.469,98.7515 93.5,99.5C 93.405,101.786 92.7384,103.786 91.5,105.5C 89.7768,104.193 87.9435,104.193 86,105.5C 82.7385,100.977 80.5718,95.9767 79.5,90.5 Z"/></g>
<g><path style="opacity:1" fill="#767013" d="M 109.5,115.5 C 108.517,119.298 108.183,123.298 108.5,127.5C 108.5,135.833 108.5,144.167 108.5,152.5C 107.503,132.674 107.17,112.674 107.5,92.5C 108.323,95.977 108.823,99.6437 109,103.5C 109.308,104.308 109.808,104.975 110.5,105.5C 116.515,99.9319 118.015,93.2653 115,85.5C 113.434,84.9394 112.101,85.6061 111,87.5C 110.601,87.2716 110.435,86.9382 110.5,86.5C 111.579,84.457 113.246,83.1237 115.5,82.5C 117.394,81.9524 119.06,80.9524 120.5,79.5C 121.243,80.9079 122.077,82.2412 123,83.5C 123.667,89.8333 123.667,96.1667 123,102.5C 121.681,104.25 121.181,106.25 121.5,108.5C 117.584,110.798 113.584,113.131 109.5,115.5 Z"/></g>
<g><path style="opacity:0.383" fill="#fdfffd" d="M -0.5,105.5 C 0.725071,106.152 1.39174,107.319 1.5,109C 1.39174,110.681 0.725071,111.848 -0.5,112.5C -0.5,110.167 -0.5,107.833 -0.5,105.5 Z"/></g>
<g><path style="opacity:0.422" fill="#fdfffd" d="M 212.5,106.5 C 212.5,108.833 212.5,111.167 212.5,113.5C 211.275,112.848 210.608,111.681 210.5,110C 210.608,108.319 211.275,107.152 212.5,106.5 Z"/></g>
<g><path style="opacity:1" fill="#867d0a" d="M 79.5,90.5 C 80.5718,95.9767 82.7385,100.977 86,105.5C 87.9435,104.193 89.7768,104.193 91.5,105.5C 91.5979,107.553 90.9313,109.22 89.5,110.5C 88.4928,111.828 87.1595,112.828 85.5,113.5C 84.1502,112.05 82.4835,111.383 80.5,111.5C 80.5459,104.95 79.8792,98.617 78.5,92.5C 74.774,92.8226 71.1073,92.4892 67.5,91.5C 71.4454,90.5091 75.4454,90.1758 79.5,90.5 Z"/></g>
<g><path style="opacity:0.454" fill="#fdfffd" d="M -0.5,115.5 C 1.3005,116.719 2.3005,118.552 2.5,121C 2.33333,121.5 2.16667,122 2,122.5C 1.32924,121.748 0.495904,121.414 -0.5,121.5C -0.5,119.5 -0.5,117.5 -0.5,115.5 Z"/></g>
<g><path style="opacity:1" fill="#736c26" d="M 78.5,92.5 C 79.8792,98.617 80.5459,104.95 80.5,111.5C 82.4835,111.383 84.1502,112.05 85.5,113.5C 87.1595,112.828 88.4928,111.828 89.5,110.5C 87.8754,116.03 87.2088,121.697 87.5,127.5C 86.2652,127.721 85.2652,128.388 84.5,129.5C 83.5,128.833 82.5,128.167 81.5,127.5C 80.6764,124.215 80.1764,120.882 80,117.5C 79.501,121.821 79.3343,126.154 79.5,130.5C 79.8279,141.679 79.4946,152.679 78.5,163.5C 78.5,139.833 78.5,116.167 78.5,92.5 Z"/></g>
<g><path style="opacity:0.38" fill="#fdfffd" d="M 212.5,116.5 C 212.5,118.167 212.5,119.833 212.5,121.5C 211.849,122.091 211.182,122.757 210.5,123.5C 210.167,122.833 209.833,122.167 209.5,121.5C 210.43,119.895 210.43,118.395 209.5,117C 210.448,116.517 211.448,116.351 212.5,116.5 Z"/></g>
<g><path style="opacity:1" fill="#6b6408" d="M 95.5,103.5 C 96.4907,109.979 96.824,116.646 96.5,123.5C 95.1805,124.942 93.5138,125.608 91.5,125.5C 91.7678,127.099 91.4345,128.432 90.5,129.5C 90.3345,125.486 90.5012,121.486 91,117.5C 92.3231,112.715 93.8231,108.048 95.5,103.5 Z"/></g>
<g><path style="opacity:0.39" fill="#fdfffd" d="M 0.5,125.5 C 1.5,125.5 2.5,125.5 3.5,125.5C 3.62652,127.915 3.79319,130.249 4,132.5C 1.60214,130.82 0.435476,128.486 0.5,125.5 Z"/></g>
<g><path style="opacity:1" fill="#464202" d="M 125.5,110.5 C 125.5,122.5 125.5,134.5 125.5,146.5C 124.691,144.708 124.191,142.708 124,140.5C 123.818,143.226 123.318,145.893 122.5,148.5C 121.707,148.069 120.873,147.735 120,147.5C 116.709,149.305 113.209,150.305 109.5,150.5C 109.825,142.648 109.492,134.982 108.5,127.5C 108.183,123.298 108.517,119.298 109.5,115.5C 109.177,119.226 109.511,122.893 110.5,126.5C 115.288,126.241 119.455,124.574 123,121.5C 122.906,117.367 123.74,113.701 125.5,110.5 Z"/></g>
<g><path style="opacity:0.44" fill="#fdfffd" d="M 208.5,126.5 C 211.152,128.815 210.986,131.149 208,133.5C 207.982,131.203 208.149,128.869 208.5,126.5 Z"/></g>
<g><path style="opacity:0.487" fill="#fdfffd" d="M 3.5,135.5 C 6.30583,136.707 6.9725,138.707 5.5,141.5C 3.91374,139.827 3.24707,137.827 3.5,135.5 Z"/></g>
<g><path style="opacity:0.449" fill="#fdfffd" d="M 206.5,136.5 C 207.497,136.47 208.164,136.97 208.5,138C 208.112,139.951 207.112,141.451 205.5,142.5C 204.911,140.519 205.245,138.519 206.5,136.5 Z"/></g>
<g><path style="opacity:1" fill="#4b4602" d="M 96.5,123.5 C 96.5,130.833 96.5,138.167 96.5,145.5C 95.1667,145.5 93.8333,145.5 92.5,145.5C 92.6633,143.143 92.4966,140.81 92,138.5C 91.8171,141.365 91.3171,144.031 90.5,146.5C 90.5,140.833 90.5,135.167 90.5,129.5C 91.4345,128.432 91.7678,127.099 91.5,125.5C 93.5138,125.608 95.1805,124.942 96.5,123.5 Z"/></g>
<g><path style="opacity:1" fill="#d8d7cb" d="M 95.5,103.5 C 95.56,102.957 95.8933,102.624 96.5,102.5C 97.4996,122.822 97.833,143.156 97.5,163.5C 96.5104,157.69 96.1771,151.69 96.5,145.5C 96.5,138.167 96.5,130.833 96.5,123.5C 96.824,116.646 96.4907,109.979 95.5,103.5 Z"/></g>
<g><path style="opacity:1" fill="#433e04" d="M 87.5,127.5 C 87.5,137.167 87.5,146.833 87.5,156.5C 86.7321,155.737 86.2321,154.737 86,153.5C 85.5065,155.134 85.3398,156.801 85.5,158.5C 84.0695,158.579 82.7362,158.246 81.5,157.5C 80.8333,148.342 80.1666,139.342 79.5,130.5C 79.3343,126.154 79.501,121.821 80,117.5C 80.1764,120.882 80.6764,124.215 81.5,127.5C 82.5,128.167 83.5,128.833 84.5,129.5C 85.2652,128.388 86.2652,127.721 87.5,127.5 Z"/></g>
<g><path style="opacity:0.49" fill="#fdfffd" d="M 6.5,144.5 C 8.5128,145.475 9.84613,147.142 10.5,149.5C 10.1667,149.833 9.83333,150.167 9.5,150.5C 7.44691,149.061 6.44691,147.061 6.5,144.5 Z"/></g>
<g><path style="opacity:0.385" fill="#fdfffd" d="M 202.5,145.5 C 203.675,145.281 204.675,145.614 205.5,146.5C 204.815,148.547 203.649,150.214 202,151.5C 201.5,151.167 201,150.833 200.5,150.5C 201.95,149.15 202.617,147.484 202.5,145.5 Z"/></g>
<g><path style="opacity:0.423" fill="#fdfffd" d="M 10.5,153.5 C 12.8089,154.388 14.4756,156.054 15.5,158.5C 14.5,159.833 13.5,159.833 12.5,158.5C 11.5435,156.925 10.8769,155.258 10.5,153.5 Z"/></g>
<g><path style="opacity:1" fill="#353105" d="M 108.5,127.5 C 109.492,134.982 109.825,142.648 109.5,150.5C 113.209,150.305 116.709,149.305 120,147.5C 120.873,147.735 121.707,148.069 122.5,148.5C 123.318,145.893 123.818,143.226 124,140.5C 124.191,142.708 124.691,144.708 125.5,146.5C 125.323,150.234 125.656,153.901 126.5,157.5C 125.847,160.058 126.847,162.225 129.5,164C 119.614,166.642 113.114,163.142 110,153.5C 109.536,154.094 109.369,154.761 109.5,155.5C 108.596,154.791 108.263,153.791 108.5,152.5C 108.5,144.167 108.5,135.833 108.5,127.5 Z"/></g>
<g><path style="opacity:0.501" fill="#fdfffd" d="M 198.5,154.5 C 199.497,154.47 200.164,154.97 200.5,156C 200.112,157.951 199.112,159.451 197.5,160.5C 197.167,160.167 196.833,159.833 196.5,159.5C 197.456,157.925 198.123,156.258 198.5,154.5 Z"/></g>
<g><path style="opacity:1" fill="#332f06" d="M 96.5,145.5 C 96.1771,151.69 96.5104,157.69 97.5,163.5C 101.226,163.177 104.893,163.511 108.5,164.5C 102.537,165.496 96.5368,165.829 90.5,165.5C 90.5,159.167 90.5,152.833 90.5,146.5C 91.3171,144.031 91.8171,141.365 92,138.5C 92.4966,140.81 92.6633,143.143 92.5,145.5C 93.8333,145.5 95.1667,145.5 96.5,145.5 Z"/></g>
<g><path style="opacity:0.426" fill="#fdfffd" d="M 15.5,162.5 C 19.0187,163.309 20.352,165.309 19.5,168.5C 17.6631,166.824 16.3298,164.824 15.5,162.5 Z"/></g>
<g><path style="opacity:0.469" fill="#fdfffd" d="M 193.5,163.5 C 194.376,163.369 195.043,163.702 195.5,164.5C 194.93,167.784 193.263,168.784 190.5,167.5C 191.91,166.431 192.91,165.097 193.5,163.5 Z"/></g>
<g><path style="opacity:1" fill="#302c0d" d="M 79.5,130.5 C 80.1666,139.342 80.8333,148.342 81.5,157.5C 82.7362,158.246 84.0695,158.579 85.5,158.5C 85.3398,156.801 85.5065,155.134 86,153.5C 86.2321,154.737 86.7321,155.737 87.5,156.5C 87.5,159.5 87.5,162.5 87.5,165.5C 80.8002,165.83 74.1335,165.497 67.5,164.5C 71.1073,163.511 74.774,163.177 78.5,163.5C 79.4946,152.679 79.8279,141.679 79.5,130.5 Z"/></g>
<g><path style="opacity:1" fill="#272511" d="M 109.5,155.5 C 109.369,154.761 109.536,154.094 110,153.5C 113.114,163.142 119.614,166.642 129.5,164C 126.847,162.225 125.847,160.058 126.5,157.5C 130.895,165.03 136.062,165.363 142,158.5C 143.6,155.666 144.766,152.666 145.5,149.5C 146.341,158.263 142.341,163.763 133.5,166C 122.297,169.223 114.297,165.723 109.5,155.5 Z"/></g>
<g><path style="opacity:0.481" fill="#fdfffd" d="M 21.5,170.5 C 24.7865,171.273 26.2865,173.273 26,176.5C 23.8733,174.886 22.3733,172.886 21.5,170.5 Z"/></g>
<g><path style="opacity:0.466" fill="#fdfffd" d="M 187.5,171.5 C 188.376,171.369 189.043,171.702 189.5,172.5C 188.459,174.585 186.959,176.252 185,177.5C 184.333,176.5 184.333,175.5 185,174.5C 186.045,173.627 186.878,172.627 187.5,171.5 Z"/></g>
<g><path style="opacity:0.443" fill="#fdfffd" d="M 27.5,177.5 C 30.0892,178.419 32.0892,180.086 33.5,182.5C 32.9984,183.521 32.3317,183.688 31.5,183C 29.5359,181.549 28.2026,179.716 27.5,177.5 Z"/></g>
<g><path style="opacity:0.384" fill="#fdfffd" d="M 181.5,178.5 C 182.497,178.47 183.164,178.97 183.5,180C 182.003,181.662 180.337,183.162 178.5,184.5C 178.167,184 177.833,183.5 177.5,183C 179.018,181.649 180.351,180.149 181.5,178.5 Z"/></g>
<g><path style="opacity:0.491" fill="#fdfffd" d="M 35.5,184.5 C 38.5899,185.209 39.9232,186.876 39.5,189.5C 36.6493,188.988 35.3159,187.321 35.5,184.5 Z"/></g>
<g><path style="opacity:0.499" fill="#fdfffd" d="M 173.5,185.5 C 174.497,185.47 175.164,185.97 175.5,187C 174.387,188.394 173.053,189.561 171.5,190.5C 171.167,190.167 170.833,189.833 170.5,189.5C 171.524,188.148 172.524,186.815 173.5,185.5 Z"/></g>
<g><path style="opacity:0.572" fill="#fdfffd" d="M 43.5,191.5 C 45.6449,191.738 47.3115,192.738 48.5,194.5C 45.9037,195.361 44.237,194.361 43.5,191.5 Z"/></g>
<g><path style="opacity:0.499" fill="#fdfffd" d="M 165.5,191.5 C 166.497,191.47 167.164,191.97 167.5,193C 166.387,194.394 165.053,195.561 163.5,196.5C 163.167,196.167 162.833,195.833 162.5,195.5C 163.524,194.148 164.524,192.815 165.5,191.5 Z"/></g>
<g><path style="opacity:0.452" fill="#fdfffd" d="M 51.5,196.5 C 54.9557,196.753 56.7891,198.42 57,201.5C 55.5806,200.54 54.0806,199.707 52.5,199C 51.7476,198.329 51.4142,197.496 51.5,196.5 Z"/></g>
<g><path style="opacity:0.506" fill="#fdfffd" d="M 156.5,197.5 C 157.675,197.281 158.675,197.614 159.5,198.5C 157.684,200.441 155.684,201.108 153.5,200.5C 154.34,199.265 155.34,198.265 156.5,197.5 Z"/></g>
<g><path style="opacity:0.427" fill="#fdfffd" d="M 60.5,200.5 C 62.2972,201.73 64.2972,202.396 66.5,202.5C 66.719,203.675 66.3857,204.675 65.5,205.5C 62.5943,204.913 60.9276,203.246 60.5,200.5 Z"/></g>
<g><path style="opacity:0.433" fill="#fdfffd" d="M 148.5,201.5 C 150.048,201.821 150.715,202.821 150.5,204.5C 148.401,205.231 146.401,205.231 144.5,204.5C 145.624,203.141 146.958,202.141 148.5,201.5 Z"/></g>
<g><path style="opacity:0.399" fill="#fdfffd" d="M 69.5,204.5 C 78.4127,207.691 78.4127,208.691 69.5,207.5C 69.5,206.5 69.5,205.5 69.5,204.5 Z"/></g>
<g><path style="opacity:0.399" fill="#fdfffd" d="M 137.5,205.5 C 138.978,205.238 140.311,205.571 141.5,206.5C 139.51,207.873 137.343,208.873 135,209.5C 134.517,208.552 134.351,207.552 134.5,206.5C 135.791,206.737 136.791,206.404 137.5,205.5 Z"/></g>
<g><path style="opacity:0.433" fill="#fdfffd" d="M 79.5,207.5 C 81.4352,208.15 83.4352,208.483 85.5,208.5C 85.719,209.675 85.3857,210.675 84.5,211.5C 82.9291,210.691 81.2624,210.357 79.5,210.5C 79.5,209.5 79.5,208.5 79.5,207.5 Z"/></g>
<g><path style="opacity:0.428" fill="#fdfffd" d="M 129.5,207.5 C 131.048,207.821 131.715,208.821 131.5,210.5C 129.738,210.357 128.071,210.691 126.5,211.5C 125.614,210.675 125.281,209.675 125.5,208.5C 127.099,208.768 128.432,208.434 129.5,207.5 Z"/></g>
<g><path style="opacity:0.374" fill="#fdfffd" d="M 95.5,212.5 C 93.5,212.5 91.5,212.5 89.5,212.5C 87.9219,210.682 88.4219,209.682 91,209.5C 93.3515,209.414 94.8515,210.414 95.5,212.5 Z"/></g>
<g><path style="opacity:0.466" fill="#fdfffd" d="M 121.5,212.5 C 119.5,212.5 117.5,212.5 115.5,212.5C 116.784,210.386 118.784,209.386 121.5,209.5C 121.5,210.5 121.5,211.5 121.5,212.5 Z"/></g>
<g><path style="opacity:0.444" fill="#fdfffd" d="M 111.5,212.5 C 107.167,212.5 102.833,212.5 98.5,212.5C 100.223,211.2 102.39,210.533 105,210.5C 107.61,210.533 109.777,211.2 111.5,212.5 Z"/></g>
</svg>
